<mxfile host="app.diagrams.net" modified="2023-05-31T22:40:10.040Z" agent="Mozilla/5.0 (Windows NT 10.0; Win64; x64) AppleWebKit/537.36 (KHTML, like Gecko) Chrome/113.0.0.0 Safari/537.36" etag="L50IXUfIoCLeAPc3jkHA" version="21.2.3" type="device" pages="2">
  <diagram id="C5RBs43oDa-KdzZeNtuy" name="dgrm01">
    <mxGraphModel dx="1562" dy="869" grid="1" gridSize="10" guides="1" tooltips="1" connect="1" arrows="1" fold="1" page="1" pageScale="1" pageWidth="827" pageHeight="1169" math="0" shadow="0">
      <root>
        <mxCell id="WIyWlLk6GJQsqaUBKTNV-0" />
        <mxCell id="WIyWlLk6GJQsqaUBKTNV-1" parent="WIyWlLk6GJQsqaUBKTNV-0" />
        <mxCell id="aiGYe7c2rWDoQreJUWU5-3" style="edgeStyle=orthogonalEdgeStyle;rounded=0;orthogonalLoop=1;jettySize=auto;html=1;" edge="1" parent="WIyWlLk6GJQsqaUBKTNV-1" source="lCXsBYswNnWKhBn_ziTO-0" target="lCXsBYswNnWKhBn_ziTO-1">
          <mxGeometry relative="1" as="geometry" />
        </mxCell>
        <mxCell id="lCXsBYswNnWKhBn_ziTO-0" value="" style="shape=umlActor;verticalLabelPosition=bottom;verticalAlign=top;html=1;outlineConnect=0;" parent="WIyWlLk6GJQsqaUBKTNV-1" vertex="1">
          <mxGeometry x="399" y="20" width="30" height="60" as="geometry" />
        </mxCell>
        <mxCell id="lCXsBYswNnWKhBn_ziTO-11" style="edgeStyle=orthogonalEdgeStyle;rounded=0;orthogonalLoop=1;jettySize=auto;html=1;" parent="WIyWlLk6GJQsqaUBKTNV-1" source="lCXsBYswNnWKhBn_ziTO-1" target="lCXsBYswNnWKhBn_ziTO-2" edge="1">
          <mxGeometry relative="1" as="geometry" />
        </mxCell>
        <mxCell id="aiGYe7c2rWDoQreJUWU5-4" style="edgeStyle=orthogonalEdgeStyle;rounded=0;orthogonalLoop=1;jettySize=auto;html=1;exitX=0.5;exitY=0;exitDx=0;exitDy=0;" edge="1" parent="WIyWlLk6GJQsqaUBKTNV-1" source="lCXsBYswNnWKhBn_ziTO-1" target="lCXsBYswNnWKhBn_ziTO-0">
          <mxGeometry relative="1" as="geometry" />
        </mxCell>
        <mxCell id="lCXsBYswNnWKhBn_ziTO-1" value="View" style="swimlane;whiteSpace=wrap;html=1;" parent="WIyWlLk6GJQsqaUBKTNV-1" vertex="1">
          <mxGeometry x="314" y="120" width="200" height="100" as="geometry" />
        </mxCell>
        <mxCell id="lCXsBYswNnWKhBn_ziTO-6" value="Интерфейсы пользовательского интерфейса" style="html=1;dashed=0;whiteSpace=wrap;" parent="lCXsBYswNnWKhBn_ziTO-1" vertex="1">
          <mxGeometry x="30" y="40" width="140" height="50" as="geometry" />
        </mxCell>
        <mxCell id="lCXsBYswNnWKhBn_ziTO-12" style="edgeStyle=orthogonalEdgeStyle;rounded=0;orthogonalLoop=1;jettySize=auto;html=1;" parent="WIyWlLk6GJQsqaUBKTNV-1" source="lCXsBYswNnWKhBn_ziTO-2" target="lCXsBYswNnWKhBn_ziTO-3" edge="1">
          <mxGeometry relative="1" as="geometry" />
        </mxCell>
        <mxCell id="lCXsBYswNnWKhBn_ziTO-2" value="Controllers" style="swimlane;whiteSpace=wrap;html=1;" parent="WIyWlLk6GJQsqaUBKTNV-1" vertex="1">
          <mxGeometry x="314" y="260" width="200" height="100" as="geometry" />
        </mxCell>
        <mxCell id="lCXsBYswNnWKhBn_ziTO-3" value="Business logic" style="swimlane;whiteSpace=wrap;html=1;" parent="WIyWlLk6GJQsqaUBKTNV-1" vertex="1">
          <mxGeometry x="314" y="400" width="200" height="100" as="geometry" />
        </mxCell>
        <mxCell id="lCXsBYswNnWKhBn_ziTO-7" value="Интерфейсы репозиториев" style="html=1;dashed=0;whiteSpace=wrap;" parent="lCXsBYswNnWKhBn_ziTO-3" vertex="1">
          <mxGeometry x="30" y="40" width="140" height="50" as="geometry" />
        </mxCell>
        <mxCell id="lCXsBYswNnWKhBn_ziTO-15" style="edgeStyle=orthogonalEdgeStyle;rounded=0;orthogonalLoop=1;jettySize=auto;html=1;entryX=0.5;entryY=1;entryDx=0;entryDy=0;" parent="WIyWlLk6GJQsqaUBKTNV-1" source="lCXsBYswNnWKhBn_ziTO-4" target="lCXsBYswNnWKhBn_ziTO-3" edge="1">
          <mxGeometry relative="1" as="geometry" />
        </mxCell>
        <mxCell id="lCXsBYswNnWKhBn_ziTO-4" value="DataAccess" style="swimlane;whiteSpace=wrap;html=1;" parent="WIyWlLk6GJQsqaUBKTNV-1" vertex="1">
          <mxGeometry x="314" y="540" width="200" height="100" as="geometry" />
        </mxCell>
        <mxCell id="lCXsBYswNnWKhBn_ziTO-8" value="Интерфейсы репозиториев" style="html=1;dashed=0;whiteSpace=wrap;" parent="lCXsBYswNnWKhBn_ziTO-4" vertex="1">
          <mxGeometry x="30" y="40" width="140" height="50" as="geometry" />
        </mxCell>
        <mxCell id="lCXsBYswNnWKhBn_ziTO-16" style="edgeStyle=orthogonalEdgeStyle;rounded=0;orthogonalLoop=1;jettySize=auto;html=1;entryX=0.5;entryY=1;entryDx=0;entryDy=0;" parent="WIyWlLk6GJQsqaUBKTNV-1" source="lCXsBYswNnWKhBn_ziTO-5" target="lCXsBYswNnWKhBn_ziTO-4" edge="1">
          <mxGeometry relative="1" as="geometry" />
        </mxCell>
        <mxCell id="aiGYe7c2rWDoQreJUWU5-6" value="" style="edgeStyle=orthogonalEdgeStyle;rounded=0;orthogonalLoop=1;jettySize=auto;html=1;" edge="1" parent="WIyWlLk6GJQsqaUBKTNV-1" source="lCXsBYswNnWKhBn_ziTO-4" target="lCXsBYswNnWKhBn_ziTO-5">
          <mxGeometry relative="1" as="geometry">
            <mxPoint x="414" y="720" as="targetPoint" />
            <mxPoint x="414" y="640" as="sourcePoint" />
          </mxGeometry>
        </mxCell>
        <mxCell id="lCXsBYswNnWKhBn_ziTO-5" value="DataBase" style="shape=datastore;whiteSpace=wrap;html=1;" parent="WIyWlLk6GJQsqaUBKTNV-1" vertex="1">
          <mxGeometry x="384" y="680" width="60" height="60" as="geometry" />
        </mxCell>
      </root>
    </mxGraphModel>
  </diagram>
  <diagram id="j60yrMIlE4ydMstbZ4l9" name="dgrm02">
    <mxGraphModel dx="2665" dy="2191" grid="1" gridSize="10" guides="1" tooltips="1" connect="1" arrows="1" fold="1" page="1" pageScale="1" pageWidth="827" pageHeight="1169" math="0" shadow="0">
      <root>
        <mxCell id="0" />
        <mxCell id="1" parent="0" />
        <mxCell id="a_CbcsXZmCE6Jk2cfPpo-118" value="" style="html=1;whiteSpace=wrap;" parent="1" vertex="1">
          <mxGeometry x="-550" y="-20" width="1340" height="1170" as="geometry" />
        </mxCell>
        <mxCell id="a_CbcsXZmCE6Jk2cfPpo-116" value="" style="html=1;whiteSpace=wrap;" parent="1" vertex="1">
          <mxGeometry x="-550" y="1180" width="1340" height="390" as="geometry" />
        </mxCell>
        <mxCell id="lqblze6DB7Pf2pC1sdCj-1" value="Series" style="swimlane;fontStyle=0;childLayout=stackLayout;horizontal=1;startSize=26;fillColor=none;horizontalStack=0;resizeParent=1;resizeParentMax=0;resizeLast=0;collapsible=1;marginBottom=0;whiteSpace=wrap;html=1;" parent="1" vertex="1">
          <mxGeometry x="274" y="47" width="140" height="182" as="geometry" />
        </mxCell>
        <mxCell id="lqblze6DB7Pf2pC1sdCj-2" value="+ id: int" style="text;strokeColor=none;fillColor=none;align=left;verticalAlign=top;spacingLeft=4;spacingRight=4;overflow=hidden;rotatable=0;points=[[0,0.5],[1,0.5]];portConstraint=eastwest;whiteSpace=wrap;html=1;" parent="lqblze6DB7Pf2pC1sdCj-1" vertex="1">
          <mxGeometry y="26" width="140" height="26" as="geometry" />
        </mxCell>
        <mxCell id="lqblze6DB7Pf2pC1sdCj-3" value="+ name: istr" style="text;strokeColor=none;fillColor=none;align=left;verticalAlign=top;spacingLeft=4;spacingRight=4;overflow=hidden;rotatable=0;points=[[0,0.5],[1,0.5]];portConstraint=eastwest;whiteSpace=wrap;html=1;" parent="lqblze6DB7Pf2pC1sdCj-1" vertex="1">
          <mxGeometry y="52" width="140" height="26" as="geometry" />
        </mxCell>
        <mxCell id="lqblze6DB7Pf2pC1sdCj-4" value="+ genre: str" style="text;strokeColor=none;fillColor=none;align=left;verticalAlign=top;spacingLeft=4;spacingRight=4;overflow=hidden;rotatable=0;points=[[0,0.5],[1,0.5]];portConstraint=eastwest;whiteSpace=wrap;html=1;" parent="lqblze6DB7Pf2pC1sdCj-1" vertex="1">
          <mxGeometry y="78" width="140" height="26" as="geometry" />
        </mxCell>
        <mxCell id="MIJjV1Fivk9fKiwd1mFk-9" value="+ publisher: str" style="text;strokeColor=none;fillColor=none;align=left;verticalAlign=top;spacingLeft=4;spacingRight=4;overflow=hidden;rotatable=0;points=[[0,0.5],[1,0.5]];portConstraint=eastwest;whiteSpace=wrap;html=1;" vertex="1" parent="lqblze6DB7Pf2pC1sdCj-1">
          <mxGeometry y="104" width="140" height="26" as="geometry" />
        </mxCell>
        <mxCell id="MIJjV1Fivk9fKiwd1mFk-10" value="+ year: int" style="text;strokeColor=none;fillColor=none;align=left;verticalAlign=top;spacingLeft=4;spacingRight=4;overflow=hidden;rotatable=0;points=[[0,0.5],[1,0.5]];portConstraint=eastwest;whiteSpace=wrap;html=1;" vertex="1" parent="lqblze6DB7Pf2pC1sdCj-1">
          <mxGeometry y="130" width="140" height="26" as="geometry" />
        </mxCell>
        <mxCell id="MIJjV1Fivk9fKiwd1mFk-11" value="+ rating: int" style="text;strokeColor=none;fillColor=none;align=left;verticalAlign=top;spacingLeft=4;spacingRight=4;overflow=hidden;rotatable=0;points=[[0,0.5],[1,0.5]];portConstraint=eastwest;whiteSpace=wrap;html=1;" vertex="1" parent="lqblze6DB7Pf2pC1sdCj-1">
          <mxGeometry y="156" width="140" height="26" as="geometry" />
        </mxCell>
        <mxCell id="lqblze6DB7Pf2pC1sdCj-5" value="Book" style="swimlane;fontStyle=0;childLayout=stackLayout;horizontal=1;startSize=26;fillColor=none;horizontalStack=0;resizeParent=1;resizeParentMax=0;resizeLast=0;collapsible=1;marginBottom=0;whiteSpace=wrap;html=1;" parent="1" vertex="1">
          <mxGeometry x="40" y="47" width="140" height="156" as="geometry" />
        </mxCell>
        <mxCell id="lqblze6DB7Pf2pC1sdCj-6" value="+ id: int" style="text;strokeColor=none;fillColor=none;align=left;verticalAlign=top;spacingLeft=4;spacingRight=4;overflow=hidden;rotatable=0;points=[[0,0.5],[1,0.5]];portConstraint=eastwest;whiteSpace=wrap;html=1;" parent="lqblze6DB7Pf2pC1sdCj-5" vertex="1">
          <mxGeometry y="26" width="140" height="26" as="geometry" />
        </mxCell>
        <mxCell id="MIJjV1Fivk9fKiwd1mFk-8" value="+ name: str" style="text;strokeColor=none;fillColor=none;align=left;verticalAlign=top;spacingLeft=4;spacingRight=4;overflow=hidden;rotatable=0;points=[[0,0.5],[1,0.5]];portConstraint=eastwest;whiteSpace=wrap;html=1;" vertex="1" parent="lqblze6DB7Pf2pC1sdCj-5">
          <mxGeometry y="52" width="140" height="26" as="geometry" />
        </mxCell>
        <mxCell id="a_CbcsXZmCE6Jk2cfPpo-5" value="+ genre: str" style="text;strokeColor=none;fillColor=none;align=left;verticalAlign=top;spacingLeft=4;spacingRight=4;overflow=hidden;rotatable=0;points=[[0,0.5],[1,0.5]];portConstraint=eastwest;whiteSpace=wrap;html=1;" parent="lqblze6DB7Pf2pC1sdCj-5" vertex="1">
          <mxGeometry y="78" width="140" height="26" as="geometry" />
        </mxCell>
        <mxCell id="lqblze6DB7Pf2pC1sdCj-8" value="+ language: str" style="text;strokeColor=none;fillColor=none;align=left;verticalAlign=top;spacingLeft=4;spacingRight=4;overflow=hidden;rotatable=0;points=[[0,0.5],[1,0.5]];portConstraint=eastwest;whiteSpace=wrap;html=1;" parent="lqblze6DB7Pf2pC1sdCj-5" vertex="1">
          <mxGeometry y="104" width="140" height="26" as="geometry" />
        </mxCell>
        <mxCell id="MIJjV1Fivk9fKiwd1mFk-6" value="+ rating: int" style="text;strokeColor=none;fillColor=none;align=left;verticalAlign=top;spacingLeft=4;spacingRight=4;overflow=hidden;rotatable=0;points=[[0,0.5],[1,0.5]];portConstraint=eastwest;whiteSpace=wrap;html=1;" vertex="1" parent="lqblze6DB7Pf2pC1sdCj-5">
          <mxGeometry y="130" width="140" height="26" as="geometry" />
        </mxCell>
        <mxCell id="MIJjV1Fivk9fKiwd1mFk-13" style="edgeStyle=orthogonalEdgeStyle;rounded=0;orthogonalLoop=1;jettySize=auto;html=1;exitX=0.5;exitY=0;exitDx=0;exitDy=0;entryX=0.5;entryY=0;entryDx=0;entryDy=0;strokeColor=default;endArrow=none;endFill=0;" edge="1" parent="1" source="lqblze6DB7Pf2pC1sdCj-9" target="lqblze6DB7Pf2pC1sdCj-5">
          <mxGeometry relative="1" as="geometry" />
        </mxCell>
        <mxCell id="lqblze6DB7Pf2pC1sdCj-9" value="Author" style="swimlane;fontStyle=0;childLayout=stackLayout;horizontal=1;startSize=26;fillColor=none;horizontalStack=0;resizeParent=1;resizeParentMax=0;resizeLast=0;collapsible=1;marginBottom=0;whiteSpace=wrap;html=1;" parent="1" vertex="1">
          <mxGeometry x="530" y="47" width="140" height="208" as="geometry" />
        </mxCell>
        <mxCell id="lqblze6DB7Pf2pC1sdCj-10" value="+ id: int" style="text;strokeColor=none;fillColor=none;align=left;verticalAlign=top;spacingLeft=4;spacingRight=4;overflow=hidden;rotatable=0;points=[[0,0.5],[1,0.5]];portConstraint=eastwest;whiteSpace=wrap;html=1;" parent="lqblze6DB7Pf2pC1sdCj-9" vertex="1">
          <mxGeometry y="26" width="140" height="26" as="geometry" />
        </mxCell>
        <mxCell id="lqblze6DB7Pf2pC1sdCj-11" value="+ name: str" style="text;strokeColor=none;fillColor=none;align=left;verticalAlign=top;spacingLeft=4;spacingRight=4;overflow=hidden;rotatable=0;points=[[0,0.5],[1,0.5]];portConstraint=eastwest;whiteSpace=wrap;html=1;" parent="lqblze6DB7Pf2pC1sdCj-9" vertex="1">
          <mxGeometry y="52" width="140" height="26" as="geometry" />
        </mxCell>
        <mxCell id="a_CbcsXZmCE6Jk2cfPpo-6" value="+ year_birth: int" style="text;strokeColor=none;fillColor=none;align=left;verticalAlign=top;spacingLeft=4;spacingRight=4;overflow=hidden;rotatable=0;points=[[0,0.5],[1,0.5]];portConstraint=eastwest;whiteSpace=wrap;html=1;" parent="lqblze6DB7Pf2pC1sdCj-9" vertex="1">
          <mxGeometry y="78" width="140" height="26" as="geometry" />
        </mxCell>
        <mxCell id="lqblze6DB7Pf2pC1sdCj-12" value="+ year_death: int" style="text;strokeColor=none;fillColor=none;align=left;verticalAlign=top;spacingLeft=4;spacingRight=4;overflow=hidden;rotatable=0;points=[[0,0.5],[1,0.5]];portConstraint=eastwest;whiteSpace=wrap;html=1;" parent="lqblze6DB7Pf2pC1sdCj-9" vertex="1">
          <mxGeometry y="104" width="140" height="26" as="geometry" />
        </mxCell>
        <mxCell id="MIJjV1Fivk9fKiwd1mFk-17" value="+ country: str" style="text;strokeColor=none;fillColor=none;align=left;verticalAlign=top;spacingLeft=4;spacingRight=4;overflow=hidden;rotatable=0;points=[[0,0.5],[1,0.5]];portConstraint=eastwest;whiteSpace=wrap;html=1;" vertex="1" parent="lqblze6DB7Pf2pC1sdCj-9">
          <mxGeometry y="130" width="140" height="26" as="geometry" />
        </mxCell>
        <mxCell id="MIJjV1Fivk9fKiwd1mFk-16" value="+ language: str" style="text;strokeColor=none;fillColor=none;align=left;verticalAlign=top;spacingLeft=4;spacingRight=4;overflow=hidden;rotatable=0;points=[[0,0.5],[1,0.5]];portConstraint=eastwest;whiteSpace=wrap;html=1;" vertex="1" parent="lqblze6DB7Pf2pC1sdCj-9">
          <mxGeometry y="156" width="140" height="26" as="geometry" />
        </mxCell>
        <mxCell id="MIJjV1Fivk9fKiwd1mFk-15" value="+ genre: str" style="text;strokeColor=none;fillColor=none;align=left;verticalAlign=top;spacingLeft=4;spacingRight=4;overflow=hidden;rotatable=0;points=[[0,0.5],[1,0.5]];portConstraint=eastwest;whiteSpace=wrap;html=1;" vertex="1" parent="lqblze6DB7Pf2pC1sdCj-9">
          <mxGeometry y="182" width="140" height="26" as="geometry" />
        </mxCell>
        <mxCell id="lqblze6DB7Pf2pC1sdCj-13" value="Bookshelf" style="swimlane;fontStyle=0;childLayout=stackLayout;horizontal=1;startSize=26;fillColor=none;horizontalStack=0;resizeParent=1;resizeParentMax=0;resizeLast=0;collapsible=1;marginBottom=0;whiteSpace=wrap;html=1;" parent="1" vertex="1">
          <mxGeometry x="-180" y="47" width="140" height="78" as="geometry" />
        </mxCell>
        <mxCell id="lqblze6DB7Pf2pC1sdCj-14" value="+ id: int" style="text;strokeColor=none;fillColor=none;align=left;verticalAlign=top;spacingLeft=4;spacingRight=4;overflow=hidden;rotatable=0;points=[[0,0.5],[1,0.5]];portConstraint=eastwest;whiteSpace=wrap;html=1;" parent="lqblze6DB7Pf2pC1sdCj-13" vertex="1">
          <mxGeometry y="26" width="140" height="26" as="geometry" />
        </mxCell>
        <mxCell id="lqblze6DB7Pf2pC1sdCj-16" value="+ name: str" style="text;strokeColor=none;fillColor=none;align=left;verticalAlign=top;spacingLeft=4;spacingRight=4;overflow=hidden;rotatable=0;points=[[0,0.5],[1,0.5]];portConstraint=eastwest;whiteSpace=wrap;html=1;" parent="lqblze6DB7Pf2pC1sdCj-13" vertex="1">
          <mxGeometry y="52" width="140" height="26" as="geometry" />
        </mxCell>
        <mxCell id="lqblze6DB7Pf2pC1sdCj-17" value="User" style="swimlane;fontStyle=0;childLayout=stackLayout;horizontal=1;startSize=26;fillColor=none;horizontalStack=0;resizeParent=1;resizeParentMax=0;resizeLast=0;collapsible=1;marginBottom=0;whiteSpace=wrap;html=1;" parent="1" vertex="1">
          <mxGeometry x="-390" y="47" width="140" height="156" as="geometry" />
        </mxCell>
        <mxCell id="lqblze6DB7Pf2pC1sdCj-18" value="+ id: int" style="text;strokeColor=none;fillColor=none;align=left;verticalAlign=top;spacingLeft=4;spacingRight=4;overflow=hidden;rotatable=0;points=[[0,0.5],[1,0.5]];portConstraint=eastwest;whiteSpace=wrap;html=1;" parent="lqblze6DB7Pf2pC1sdCj-17" vertex="1">
          <mxGeometry y="26" width="140" height="26" as="geometry" />
        </mxCell>
        <mxCell id="MIJjV1Fivk9fKiwd1mFk-12" value="+ id_bookshelf: int" style="text;strokeColor=none;fillColor=none;align=left;verticalAlign=top;spacingLeft=4;spacingRight=4;overflow=hidden;rotatable=0;points=[[0,0.5],[1,0.5]];portConstraint=eastwest;whiteSpace=wrap;html=1;" vertex="1" parent="lqblze6DB7Pf2pC1sdCj-17">
          <mxGeometry y="52" width="140" height="26" as="geometry" />
        </mxCell>
        <mxCell id="lqblze6DB7Pf2pC1sdCj-19" value="+ login: str" style="text;strokeColor=none;fillColor=none;align=left;verticalAlign=top;spacingLeft=4;spacingRight=4;overflow=hidden;rotatable=0;points=[[0,0.5],[1,0.5]];portConstraint=eastwest;whiteSpace=wrap;html=1;" parent="lqblze6DB7Pf2pC1sdCj-17" vertex="1">
          <mxGeometry y="78" width="140" height="26" as="geometry" />
        </mxCell>
        <mxCell id="lqblze6DB7Pf2pC1sdCj-20" value="+ password: str" style="text;strokeColor=none;fillColor=none;align=left;verticalAlign=top;spacingLeft=4;spacingRight=4;overflow=hidden;rotatable=0;points=[[0,0.5],[1,0.5]];portConstraint=eastwest;whiteSpace=wrap;html=1;" parent="lqblze6DB7Pf2pC1sdCj-17" vertex="1">
          <mxGeometry y="104" width="140" height="26" as="geometry" />
        </mxCell>
        <mxCell id="a_CbcsXZmCE6Jk2cfPpo-2" value="+ permission: str" style="text;strokeColor=none;fillColor=none;align=left;verticalAlign=top;spacingLeft=4;spacingRight=4;overflow=hidden;rotatable=0;points=[[0,0.5],[1,0.5]];portConstraint=eastwest;whiteSpace=wrap;html=1;" parent="lqblze6DB7Pf2pC1sdCj-17" vertex="1">
          <mxGeometry y="130" width="140" height="26" as="geometry" />
        </mxCell>
        <mxCell id="a_CbcsXZmCE6Jk2cfPpo-11" value="UserController" style="swimlane;fontStyle=0;childLayout=stackLayout;horizontal=1;startSize=26;fillColor=none;horizontalStack=0;resizeParent=1;resizeParentMax=0;resizeLast=0;collapsible=1;marginBottom=0;whiteSpace=wrap;html=1;" parent="1" vertex="1">
          <mxGeometry x="-405" y="340" width="170" height="104" as="geometry" />
        </mxCell>
        <mxCell id="a_CbcsXZmCE6Jk2cfPpo-12" value="+ Login(model)" style="text;strokeColor=none;fillColor=none;align=left;verticalAlign=top;spacingLeft=4;spacingRight=4;overflow=hidden;rotatable=0;points=[[0,0.5],[1,0.5]];portConstraint=eastwest;whiteSpace=wrap;html=1;" parent="a_CbcsXZmCE6Jk2cfPpo-11" vertex="1">
          <mxGeometry y="26" width="170" height="26" as="geometry" />
        </mxCell>
        <mxCell id="a_CbcsXZmCE6Jk2cfPpo-17" value="+ Logout(model)" style="text;strokeColor=none;fillColor=none;align=left;verticalAlign=top;spacingLeft=4;spacingRight=4;overflow=hidden;rotatable=0;points=[[0,0.5],[1,0.5]];portConstraint=eastwest;whiteSpace=wrap;html=1;" parent="a_CbcsXZmCE6Jk2cfPpo-11" vertex="1">
          <mxGeometry y="52" width="170" height="26" as="geometry" />
        </mxCell>
        <mxCell id="MIJjV1Fivk9fKiwd1mFk-1" value="+ Register (model)" style="text;strokeColor=none;fillColor=none;align=left;verticalAlign=top;spacingLeft=4;spacingRight=4;overflow=hidden;rotatable=0;points=[[0,0.5],[1,0.5]];portConstraint=eastwest;whiteSpace=wrap;html=1;" vertex="1" parent="a_CbcsXZmCE6Jk2cfPpo-11">
          <mxGeometry y="78" width="170" height="26" as="geometry" />
        </mxCell>
        <mxCell id="a_CbcsXZmCE6Jk2cfPpo-21" value="BookshelfController" style="swimlane;fontStyle=0;childLayout=stackLayout;horizontal=1;startSize=26;fillColor=none;horizontalStack=0;resizeParent=1;resizeParentMax=0;resizeLast=0;collapsible=1;marginBottom=0;whiteSpace=wrap;html=1;" parent="1" vertex="1">
          <mxGeometry x="-195" y="340" width="170" height="156" as="geometry" />
        </mxCell>
        <mxCell id="a_CbcsXZmCE6Jk2cfPpo-23" value="+ GetAll()" style="text;strokeColor=none;fillColor=none;align=left;verticalAlign=top;spacingLeft=4;spacingRight=4;overflow=hidden;rotatable=0;points=[[0,0.5],[1,0.5]];portConstraint=eastwest;whiteSpace=wrap;html=1;" parent="a_CbcsXZmCE6Jk2cfPpo-21" vertex="1">
          <mxGeometry y="26" width="170" height="26" as="geometry" />
        </mxCell>
        <mxCell id="a_CbcsXZmCE6Jk2cfPpo-24" value="+ GetById()" style="text;strokeColor=none;fillColor=none;align=left;verticalAlign=top;spacingLeft=4;spacingRight=4;overflow=hidden;rotatable=0;points=[[0,0.5],[1,0.5]];portConstraint=eastwest;whiteSpace=wrap;html=1;" parent="a_CbcsXZmCE6Jk2cfPpo-21" vertex="1">
          <mxGeometry y="52" width="170" height="26" as="geometry" />
        </mxCell>
        <mxCell id="a_CbcsXZmCE6Jk2cfPpo-22" value="+ Add(model)" style="text;strokeColor=none;fillColor=none;align=left;verticalAlign=top;spacingLeft=4;spacingRight=4;overflow=hidden;rotatable=0;points=[[0,0.5],[1,0.5]];portConstraint=eastwest;whiteSpace=wrap;html=1;" parent="a_CbcsXZmCE6Jk2cfPpo-21" vertex="1">
          <mxGeometry y="78" width="170" height="26" as="geometry" />
        </mxCell>
        <mxCell id="a_CbcsXZmCE6Jk2cfPpo-25" value="+ Update(model)" style="text;strokeColor=none;fillColor=none;align=left;verticalAlign=top;spacingLeft=4;spacingRight=4;overflow=hidden;rotatable=0;points=[[0,0.5],[1,0.5]];portConstraint=eastwest;whiteSpace=wrap;html=1;" parent="a_CbcsXZmCE6Jk2cfPpo-21" vertex="1">
          <mxGeometry y="104" width="170" height="26" as="geometry" />
        </mxCell>
        <mxCell id="a_CbcsXZmCE6Jk2cfPpo-26" value="+ Delete(model)" style="text;strokeColor=none;fillColor=none;align=left;verticalAlign=top;spacingLeft=4;spacingRight=4;overflow=hidden;rotatable=0;points=[[0,0.5],[1,0.5]];portConstraint=eastwest;whiteSpace=wrap;html=1;" parent="a_CbcsXZmCE6Jk2cfPpo-21" vertex="1">
          <mxGeometry y="130" width="170" height="26" as="geometry" />
        </mxCell>
        <mxCell id="a_CbcsXZmCE6Jk2cfPpo-35" value="SeriesController" style="swimlane;fontStyle=0;childLayout=stackLayout;horizontal=1;startSize=26;fillColor=none;horizontalStack=0;resizeParent=1;resizeParentMax=0;resizeLast=0;collapsible=1;marginBottom=0;whiteSpace=wrap;html=1;" parent="1" vertex="1">
          <mxGeometry x="259" y="340" width="170" height="156" as="geometry" />
        </mxCell>
        <mxCell id="a_CbcsXZmCE6Jk2cfPpo-36" value="+ GetAll()" style="text;strokeColor=none;fillColor=none;align=left;verticalAlign=top;spacingLeft=4;spacingRight=4;overflow=hidden;rotatable=0;points=[[0,0.5],[1,0.5]];portConstraint=eastwest;whiteSpace=wrap;html=1;" parent="a_CbcsXZmCE6Jk2cfPpo-35" vertex="1">
          <mxGeometry y="26" width="170" height="26" as="geometry" />
        </mxCell>
        <mxCell id="a_CbcsXZmCE6Jk2cfPpo-37" value="+ GetById(id)" style="text;strokeColor=none;fillColor=none;align=left;verticalAlign=top;spacingLeft=4;spacingRight=4;overflow=hidden;rotatable=0;points=[[0,0.5],[1,0.5]];portConstraint=eastwest;whiteSpace=wrap;html=1;" parent="a_CbcsXZmCE6Jk2cfPpo-35" vertex="1">
          <mxGeometry y="52" width="170" height="26" as="geometry" />
        </mxCell>
        <mxCell id="a_CbcsXZmCE6Jk2cfPpo-38" value="+ Add(model)" style="text;strokeColor=none;fillColor=none;align=left;verticalAlign=top;spacingLeft=4;spacingRight=4;overflow=hidden;rotatable=0;points=[[0,0.5],[1,0.5]];portConstraint=eastwest;whiteSpace=wrap;html=1;" parent="a_CbcsXZmCE6Jk2cfPpo-35" vertex="1">
          <mxGeometry y="78" width="170" height="26" as="geometry" />
        </mxCell>
        <mxCell id="a_CbcsXZmCE6Jk2cfPpo-39" value="+ Update(model)" style="text;strokeColor=none;fillColor=none;align=left;verticalAlign=top;spacingLeft=4;spacingRight=4;overflow=hidden;rotatable=0;points=[[0,0.5],[1,0.5]];portConstraint=eastwest;whiteSpace=wrap;html=1;" parent="a_CbcsXZmCE6Jk2cfPpo-35" vertex="1">
          <mxGeometry y="104" width="170" height="26" as="geometry" />
        </mxCell>
        <mxCell id="a_CbcsXZmCE6Jk2cfPpo-40" value="+ Delete(model)" style="text;strokeColor=none;fillColor=none;align=left;verticalAlign=top;spacingLeft=4;spacingRight=4;overflow=hidden;rotatable=0;points=[[0,0.5],[1,0.5]];portConstraint=eastwest;whiteSpace=wrap;html=1;" parent="a_CbcsXZmCE6Jk2cfPpo-35" vertex="1">
          <mxGeometry y="130" width="170" height="26" as="geometry" />
        </mxCell>
        <mxCell id="a_CbcsXZmCE6Jk2cfPpo-48" value="" style="endArrow=blockThin;dashed=1;endFill=1;endSize=9;html=1;rounded=0;exitX=0.5;exitY=0;exitDx=0;exitDy=0;" parent="1" source="a_CbcsXZmCE6Jk2cfPpo-11" target="lqblze6DB7Pf2pC1sdCj-17" edge="1">
          <mxGeometry width="160" relative="1" as="geometry">
            <mxPoint x="-80" y="240" as="sourcePoint" />
            <mxPoint x="80" y="240" as="targetPoint" />
          </mxGeometry>
        </mxCell>
        <mxCell id="a_CbcsXZmCE6Jk2cfPpo-49" value="" style="endArrow=blockThin;dashed=1;endFill=1;endSize=9;html=1;rounded=0;exitX=0.5;exitY=0;exitDx=0;exitDy=0;entryX=0.502;entryY=1.136;entryDx=0;entryDy=0;entryPerimeter=0;" parent="1" source="a_CbcsXZmCE6Jk2cfPpo-21" target="lqblze6DB7Pf2pC1sdCj-16" edge="1">
          <mxGeometry width="160" relative="1" as="geometry">
            <mxPoint x="-310" y="280" as="sourcePoint" />
            <mxPoint x="-110" y="154" as="targetPoint" />
          </mxGeometry>
        </mxCell>
        <mxCell id="a_CbcsXZmCE6Jk2cfPpo-50" value="" style="endArrow=blockThin;dashed=1;endFill=1;endSize=9;html=1;rounded=0;exitX=0.5;exitY=0;exitDx=0;exitDy=0;" parent="1" target="lqblze6DB7Pf2pC1sdCj-5" edge="1">
          <mxGeometry width="160" relative="1" as="geometry">
            <mxPoint x="110" y="340" as="sourcePoint" />
            <mxPoint x="-300" y="223" as="targetPoint" />
          </mxGeometry>
        </mxCell>
        <mxCell id="a_CbcsXZmCE6Jk2cfPpo-51" value="" style="endArrow=blockThin;dashed=1;endFill=1;endSize=9;html=1;rounded=0;exitX=0.5;exitY=0;exitDx=0;exitDy=0;" parent="1" source="a_CbcsXZmCE6Jk2cfPpo-35" target="lqblze6DB7Pf2pC1sdCj-1" edge="1">
          <mxGeometry width="160" relative="1" as="geometry">
            <mxPoint x="340" y="237" as="sourcePoint" />
            <mxPoint x="340" y="170" as="targetPoint" />
          </mxGeometry>
        </mxCell>
        <mxCell id="a_CbcsXZmCE6Jk2cfPpo-52" value="" style="endArrow=blockThin;dashed=1;endFill=1;endSize=9;html=1;rounded=0;exitX=0.5;exitY=0;exitDx=0;exitDy=0;" parent="1" target="lqblze6DB7Pf2pC1sdCj-9" edge="1">
          <mxGeometry width="160" relative="1" as="geometry">
            <mxPoint x="600" y="340" as="sourcePoint" />
            <mxPoint x="599.41" y="177" as="targetPoint" />
          </mxGeometry>
        </mxCell>
        <mxCell id="MIJjV1Fivk9fKiwd1mFk-42" style="edgeStyle=orthogonalEdgeStyle;rounded=0;orthogonalLoop=1;jettySize=auto;html=1;exitX=0.5;exitY=0;exitDx=0;exitDy=0;endArrow=block;endFill=0;" edge="1" parent="1" source="a_CbcsXZmCE6Jk2cfPpo-54" target="MIJjV1Fivk9fKiwd1mFk-32">
          <mxGeometry relative="1" as="geometry" />
        </mxCell>
        <mxCell id="MIJjV1Fivk9fKiwd1mFk-47" style="edgeStyle=orthogonalEdgeStyle;rounded=0;orthogonalLoop=1;jettySize=auto;html=1;exitX=0.5;exitY=0;exitDx=0;exitDy=0;" edge="1" parent="1" source="a_CbcsXZmCE6Jk2cfPpo-54" target="a_CbcsXZmCE6Jk2cfPpo-21">
          <mxGeometry relative="1" as="geometry" />
        </mxCell>
        <mxCell id="a_CbcsXZmCE6Jk2cfPpo-54" value="&lt;i style=&quot;border-color: var(--border-color);&quot;&gt;&amp;lt;&amp;lt;interface&amp;gt;&amp;gt;&lt;/i&gt;&lt;br&gt;IBookshelfRepository" style="swimlane;fontStyle=0;childLayout=stackLayout;horizontal=1;startSize=26;fillColor=none;horizontalStack=0;resizeParent=1;resizeParentMax=0;resizeLast=0;collapsible=1;marginBottom=0;whiteSpace=wrap;html=1;" parent="1" vertex="1">
          <mxGeometry x="-195" y="890" width="170" height="52" as="geometry" />
        </mxCell>
        <mxCell id="MIJjV1Fivk9fKiwd1mFk-43" style="edgeStyle=orthogonalEdgeStyle;rounded=0;orthogonalLoop=1;jettySize=auto;html=1;exitX=0.5;exitY=0;exitDx=0;exitDy=0;endArrow=block;endFill=0;" edge="1" parent="1" source="a_CbcsXZmCE6Jk2cfPpo-60" target="MIJjV1Fivk9fKiwd1mFk-32">
          <mxGeometry relative="1" as="geometry" />
        </mxCell>
        <mxCell id="a_CbcsXZmCE6Jk2cfPpo-60" value="&lt;i style=&quot;border-color: var(--border-color);&quot;&gt;&amp;lt;&amp;lt;interface&amp;gt;&amp;gt;&lt;/i&gt;&lt;br&gt;IBookRepository" style="swimlane;fontStyle=0;childLayout=stackLayout;horizontal=1;startSize=26;fillColor=none;horizontalStack=0;resizeParent=1;resizeParentMax=0;resizeLast=0;collapsible=1;marginBottom=0;whiteSpace=wrap;html=1;" parent="1" vertex="1">
          <mxGeometry x="15" y="890" width="170" height="208" as="geometry" />
        </mxCell>
        <mxCell id="a_CbcsXZmCE6Jk2cfPpo-61" value="+ GetByName(name)" style="text;strokeColor=none;fillColor=none;align=left;verticalAlign=top;spacingLeft=4;spacingRight=4;overflow=hidden;rotatable=0;points=[[0,0.5],[1,0.5]];portConstraint=eastwest;whiteSpace=wrap;html=1;" parent="a_CbcsXZmCE6Jk2cfPpo-60" vertex="1">
          <mxGeometry y="26" width="170" height="26" as="geometry" />
        </mxCell>
        <mxCell id="a_CbcsXZmCE6Jk2cfPpo-62" value="+ GetByGenre(genre)" style="text;strokeColor=none;fillColor=none;align=left;verticalAlign=top;spacingLeft=4;spacingRight=4;overflow=hidden;rotatable=0;points=[[0,0.5],[1,0.5]];portConstraint=eastwest;whiteSpace=wrap;html=1;" parent="a_CbcsXZmCE6Jk2cfPpo-60" vertex="1">
          <mxGeometry y="52" width="170" height="26" as="geometry" />
        </mxCell>
        <mxCell id="a_CbcsXZmCE6Jk2cfPpo-63" value="+ GetByLanguage(language)" style="text;strokeColor=none;fillColor=none;align=left;verticalAlign=top;spacingLeft=4;spacingRight=4;overflow=hidden;rotatable=0;points=[[0,0.5],[1,0.5]];portConstraint=eastwest;whiteSpace=wrap;html=1;" parent="a_CbcsXZmCE6Jk2cfPpo-60" vertex="1">
          <mxGeometry y="78" width="170" height="26" as="geometry" />
        </mxCell>
        <mxCell id="a_CbcsXZmCE6Jk2cfPpo-64" value="+ GetByRating(rating)" style="text;strokeColor=none;fillColor=none;align=left;verticalAlign=top;spacingLeft=4;spacingRight=4;overflow=hidden;rotatable=0;points=[[0,0.5],[1,0.5]];portConstraint=eastwest;whiteSpace=wrap;html=1;" parent="a_CbcsXZmCE6Jk2cfPpo-60" vertex="1">
          <mxGeometry y="104" width="170" height="26" as="geometry" />
        </mxCell>
        <mxCell id="a_CbcsXZmCE6Jk2cfPpo-65" value="+ GetByAuthor(author)" style="text;strokeColor=none;fillColor=none;align=left;verticalAlign=top;spacingLeft=4;spacingRight=4;overflow=hidden;rotatable=0;points=[[0,0.5],[1,0.5]];portConstraint=eastwest;whiteSpace=wrap;html=1;" parent="a_CbcsXZmCE6Jk2cfPpo-60" vertex="1">
          <mxGeometry y="130" width="170" height="26" as="geometry" />
        </mxCell>
        <mxCell id="MIJjV1Fivk9fKiwd1mFk-51" value="+ GetBySeries(series)" style="text;strokeColor=none;fillColor=none;align=left;verticalAlign=top;spacingLeft=4;spacingRight=4;overflow=hidden;rotatable=0;points=[[0,0.5],[1,0.5]];portConstraint=eastwest;whiteSpace=wrap;html=1;" vertex="1" parent="a_CbcsXZmCE6Jk2cfPpo-60">
          <mxGeometry y="156" width="170" height="26" as="geometry" />
        </mxCell>
        <mxCell id="MIJjV1Fivk9fKiwd1mFk-50" value="+ GetByBookshelf(bookshelf)" style="text;strokeColor=none;fillColor=none;align=left;verticalAlign=top;spacingLeft=4;spacingRight=4;overflow=hidden;rotatable=0;points=[[0,0.5],[1,0.5]];portConstraint=eastwest;whiteSpace=wrap;html=1;" vertex="1" parent="a_CbcsXZmCE6Jk2cfPpo-60">
          <mxGeometry y="182" width="170" height="26" as="geometry" />
        </mxCell>
        <mxCell id="MIJjV1Fivk9fKiwd1mFk-44" style="edgeStyle=orthogonalEdgeStyle;rounded=0;orthogonalLoop=1;jettySize=auto;html=1;exitX=0.5;exitY=0;exitDx=0;exitDy=0;endArrow=block;endFill=0;" edge="1" parent="1" source="a_CbcsXZmCE6Jk2cfPpo-66" target="MIJjV1Fivk9fKiwd1mFk-32">
          <mxGeometry relative="1" as="geometry" />
        </mxCell>
        <mxCell id="MIJjV1Fivk9fKiwd1mFk-48" style="edgeStyle=orthogonalEdgeStyle;rounded=0;orthogonalLoop=1;jettySize=auto;html=1;exitX=0.5;exitY=0;exitDx=0;exitDy=0;" edge="1" parent="1" source="a_CbcsXZmCE6Jk2cfPpo-66" target="a_CbcsXZmCE6Jk2cfPpo-35">
          <mxGeometry relative="1" as="geometry" />
        </mxCell>
        <mxCell id="a_CbcsXZmCE6Jk2cfPpo-66" value="&lt;i style=&quot;border-color: var(--border-color);&quot;&gt;&amp;lt;&amp;lt;interface&amp;gt;&amp;gt;&lt;/i&gt;&lt;br&gt;ISeriesRepository" style="swimlane;fontStyle=0;childLayout=stackLayout;horizontal=1;startSize=26;fillColor=none;horizontalStack=0;resizeParent=1;resizeParentMax=0;resizeLast=0;collapsible=1;marginBottom=0;whiteSpace=wrap;html=1;" parent="1" vertex="1">
          <mxGeometry x="259" y="890" width="170" height="156" as="geometry" />
        </mxCell>
        <mxCell id="a_CbcsXZmCE6Jk2cfPpo-67" value="+ GetByNmae(name)" style="text;strokeColor=none;fillColor=none;align=left;verticalAlign=top;spacingLeft=4;spacingRight=4;overflow=hidden;rotatable=0;points=[[0,0.5],[1,0.5]];portConstraint=eastwest;whiteSpace=wrap;html=1;" parent="a_CbcsXZmCE6Jk2cfPpo-66" vertex="1">
          <mxGeometry y="26" width="170" height="26" as="geometry" />
        </mxCell>
        <mxCell id="a_CbcsXZmCE6Jk2cfPpo-68" value="+ GetByGenre(genre)" style="text;strokeColor=none;fillColor=none;align=left;verticalAlign=top;spacingLeft=4;spacingRight=4;overflow=hidden;rotatable=0;points=[[0,0.5],[1,0.5]];portConstraint=eastwest;whiteSpace=wrap;html=1;" parent="a_CbcsXZmCE6Jk2cfPpo-66" vertex="1">
          <mxGeometry y="52" width="170" height="26" as="geometry" />
        </mxCell>
        <mxCell id="a_CbcsXZmCE6Jk2cfPpo-69" value="+ GetByPublisher(publisher)" style="text;strokeColor=none;fillColor=none;align=left;verticalAlign=top;spacingLeft=4;spacingRight=4;overflow=hidden;rotatable=0;points=[[0,0.5],[1,0.5]];portConstraint=eastwest;whiteSpace=wrap;html=1;" parent="a_CbcsXZmCE6Jk2cfPpo-66" vertex="1">
          <mxGeometry y="78" width="170" height="26" as="geometry" />
        </mxCell>
        <mxCell id="a_CbcsXZmCE6Jk2cfPpo-70" value="+ GetBuYear(year)" style="text;strokeColor=none;fillColor=none;align=left;verticalAlign=top;spacingLeft=4;spacingRight=4;overflow=hidden;rotatable=0;points=[[0,0.5],[1,0.5]];portConstraint=eastwest;whiteSpace=wrap;html=1;" parent="a_CbcsXZmCE6Jk2cfPpo-66" vertex="1">
          <mxGeometry y="104" width="170" height="26" as="geometry" />
        </mxCell>
        <mxCell id="a_CbcsXZmCE6Jk2cfPpo-71" value="+ GetByRating(rating)" style="text;strokeColor=none;fillColor=none;align=left;verticalAlign=top;spacingLeft=4;spacingRight=4;overflow=hidden;rotatable=0;points=[[0,0.5],[1,0.5]];portConstraint=eastwest;whiteSpace=wrap;html=1;" parent="a_CbcsXZmCE6Jk2cfPpo-66" vertex="1">
          <mxGeometry y="130" width="170" height="26" as="geometry" />
        </mxCell>
        <mxCell id="MIJjV1Fivk9fKiwd1mFk-45" style="edgeStyle=orthogonalEdgeStyle;rounded=0;orthogonalLoop=1;jettySize=auto;html=1;exitX=0.5;exitY=0;exitDx=0;exitDy=0;endArrow=block;endFill=0;" edge="1" parent="1" source="a_CbcsXZmCE6Jk2cfPpo-72" target="MIJjV1Fivk9fKiwd1mFk-32">
          <mxGeometry relative="1" as="geometry" />
        </mxCell>
        <mxCell id="a_CbcsXZmCE6Jk2cfPpo-72" value="&lt;i&gt;&amp;lt;&amp;lt;interface&amp;gt;&amp;gt;&lt;/i&gt;&lt;br&gt;IAuthorRepository" style="swimlane;fontStyle=0;childLayout=stackLayout;horizontal=1;startSize=26;fillColor=none;horizontalStack=0;resizeParent=1;resizeParentMax=0;resizeLast=0;collapsible=1;marginBottom=0;whiteSpace=wrap;html=1;" parent="1" vertex="1">
          <mxGeometry x="500" y="890" width="200" height="182" as="geometry" />
        </mxCell>
        <mxCell id="a_CbcsXZmCE6Jk2cfPpo-73" value="+ GetByName(name)" style="text;strokeColor=none;fillColor=none;align=left;verticalAlign=top;spacingLeft=4;spacingRight=4;overflow=hidden;rotatable=0;points=[[0,0.5],[1,0.5]];portConstraint=eastwest;whiteSpace=wrap;html=1;" parent="a_CbcsXZmCE6Jk2cfPpo-72" vertex="1">
          <mxGeometry y="26" width="200" height="26" as="geometry" />
        </mxCell>
        <mxCell id="a_CbcsXZmCE6Jk2cfPpo-74" value="+ GetYaerBirth(yearBirth)" style="text;strokeColor=none;fillColor=none;align=left;verticalAlign=top;spacingLeft=4;spacingRight=4;overflow=hidden;rotatable=0;points=[[0,0.5],[1,0.5]];portConstraint=eastwest;whiteSpace=wrap;html=1;" parent="a_CbcsXZmCE6Jk2cfPpo-72" vertex="1">
          <mxGeometry y="52" width="200" height="26" as="geometry" />
        </mxCell>
        <mxCell id="a_CbcsXZmCE6Jk2cfPpo-75" value="+ GetYaerDeath(yearDeath)" style="text;strokeColor=none;fillColor=none;align=left;verticalAlign=top;spacingLeft=4;spacingRight=4;overflow=hidden;rotatable=0;points=[[0,0.5],[1,0.5]];portConstraint=eastwest;whiteSpace=wrap;html=1;" parent="a_CbcsXZmCE6Jk2cfPpo-72" vertex="1">
          <mxGeometry y="78" width="200" height="26" as="geometry" />
        </mxCell>
        <mxCell id="a_CbcsXZmCE6Jk2cfPpo-76" value="+ GetByCountry(country)" style="text;strokeColor=none;fillColor=none;align=left;verticalAlign=top;spacingLeft=4;spacingRight=4;overflow=hidden;rotatable=0;points=[[0,0.5],[1,0.5]];portConstraint=eastwest;whiteSpace=wrap;html=1;" parent="a_CbcsXZmCE6Jk2cfPpo-72" vertex="1">
          <mxGeometry y="104" width="200" height="26" as="geometry" />
        </mxCell>
        <mxCell id="a_CbcsXZmCE6Jk2cfPpo-77" value="+ GetByLanguage(language)" style="text;strokeColor=none;fillColor=none;align=left;verticalAlign=top;spacingLeft=4;spacingRight=4;overflow=hidden;rotatable=0;points=[[0,0.5],[1,0.5]];portConstraint=eastwest;whiteSpace=wrap;html=1;" parent="a_CbcsXZmCE6Jk2cfPpo-72" vertex="1">
          <mxGeometry y="130" width="200" height="26" as="geometry" />
        </mxCell>
        <mxCell id="a_CbcsXZmCE6Jk2cfPpo-78" value="+ GetByGenre(genre)" style="text;strokeColor=none;fillColor=none;align=left;verticalAlign=top;spacingLeft=4;spacingRight=4;overflow=hidden;rotatable=0;points=[[0,0.5],[1,0.5]];portConstraint=eastwest;whiteSpace=wrap;html=1;" parent="a_CbcsXZmCE6Jk2cfPpo-72" vertex="1">
          <mxGeometry y="156" width="200" height="26" as="geometry" />
        </mxCell>
        <mxCell id="MIJjV1Fivk9fKiwd1mFk-41" style="edgeStyle=orthogonalEdgeStyle;rounded=0;orthogonalLoop=1;jettySize=auto;html=1;exitX=0.5;exitY=0;exitDx=0;exitDy=0;endArrow=block;endFill=0;" edge="1" parent="1" source="a_CbcsXZmCE6Jk2cfPpo-79" target="MIJjV1Fivk9fKiwd1mFk-32">
          <mxGeometry relative="1" as="geometry" />
        </mxCell>
        <mxCell id="a_CbcsXZmCE6Jk2cfPpo-79" value="&lt;i style=&quot;border-color: var(--border-color);&quot;&gt;&amp;lt;&amp;lt;interface&amp;gt;&amp;gt;&lt;/i&gt;&lt;br&gt;IUserRepository" style="swimlane;fontStyle=0;childLayout=stackLayout;horizontal=1;startSize=26;fillColor=none;horizontalStack=0;resizeParent=1;resizeParentMax=0;resizeLast=0;collapsible=1;marginBottom=0;whiteSpace=wrap;html=1;" parent="1" vertex="1">
          <mxGeometry x="-415" y="890" width="185" height="78" as="geometry" />
        </mxCell>
        <mxCell id="a_CbcsXZmCE6Jk2cfPpo-80" value="+ GetByLogin(login)" style="text;strokeColor=none;fillColor=none;align=left;verticalAlign=top;spacingLeft=4;spacingRight=4;overflow=hidden;rotatable=0;points=[[0,0.5],[1,0.5]];portConstraint=eastwest;whiteSpace=wrap;html=1;" parent="a_CbcsXZmCE6Jk2cfPpo-79" vertex="1">
          <mxGeometry y="26" width="185" height="26" as="geometry" />
        </mxCell>
        <mxCell id="a_CbcsXZmCE6Jk2cfPpo-81" value="+ GetByPermission(permission)" style="text;strokeColor=none;fillColor=none;align=left;verticalAlign=top;spacingLeft=4;spacingRight=4;overflow=hidden;rotatable=0;points=[[0,0.5],[1,0.5]];portConstraint=eastwest;whiteSpace=wrap;html=1;" parent="a_CbcsXZmCE6Jk2cfPpo-79" vertex="1">
          <mxGeometry y="52" width="185" height="26" as="geometry" />
        </mxCell>
        <mxCell id="a_CbcsXZmCE6Jk2cfPpo-110" value="UserRepository" style="swimlane;fontStyle=0;childLayout=stackLayout;horizontal=1;startSize=26;fillColor=none;horizontalStack=0;resizeParent=1;resizeParentMax=0;resizeLast=0;collapsible=1;marginBottom=0;whiteSpace=wrap;html=1;" parent="1" vertex="1">
          <mxGeometry x="-413.75" y="1210" width="182.5" height="208" as="geometry" />
        </mxCell>
        <mxCell id="a_CbcsXZmCE6Jk2cfPpo-112" value="+ GetAll()" style="text;strokeColor=none;fillColor=none;align=left;verticalAlign=top;spacingLeft=4;spacingRight=4;overflow=hidden;rotatable=0;points=[[0,0.5],[1,0.5]];portConstraint=eastwest;whiteSpace=wrap;html=1;" parent="a_CbcsXZmCE6Jk2cfPpo-110" vertex="1">
          <mxGeometry y="26" width="182.5" height="26" as="geometry" />
        </mxCell>
        <mxCell id="MIJjV1Fivk9fKiwd1mFk-66" value="+ GetById(id)" style="text;strokeColor=none;fillColor=none;align=left;verticalAlign=top;spacingLeft=4;spacingRight=4;overflow=hidden;rotatable=0;points=[[0,0.5],[1,0.5]];portConstraint=eastwest;whiteSpace=wrap;html=1;" vertex="1" parent="a_CbcsXZmCE6Jk2cfPpo-110">
          <mxGeometry y="52" width="182.5" height="26" as="geometry" />
        </mxCell>
        <mxCell id="MIJjV1Fivk9fKiwd1mFk-65" value="+ Add(model)" style="text;strokeColor=none;fillColor=none;align=left;verticalAlign=top;spacingLeft=4;spacingRight=4;overflow=hidden;rotatable=0;points=[[0,0.5],[1,0.5]];portConstraint=eastwest;whiteSpace=wrap;html=1;" vertex="1" parent="a_CbcsXZmCE6Jk2cfPpo-110">
          <mxGeometry y="78" width="182.5" height="26" as="geometry" />
        </mxCell>
        <mxCell id="MIJjV1Fivk9fKiwd1mFk-64" value="+ Update(model)" style="text;strokeColor=none;fillColor=none;align=left;verticalAlign=top;spacingLeft=4;spacingRight=4;overflow=hidden;rotatable=0;points=[[0,0.5],[1,0.5]];portConstraint=eastwest;whiteSpace=wrap;html=1;" vertex="1" parent="a_CbcsXZmCE6Jk2cfPpo-110">
          <mxGeometry y="104" width="182.5" height="26" as="geometry" />
        </mxCell>
        <mxCell id="MIJjV1Fivk9fKiwd1mFk-63" value="+ Delete(model)" style="text;strokeColor=none;fillColor=none;align=left;verticalAlign=top;spacingLeft=4;spacingRight=4;overflow=hidden;rotatable=0;points=[[0,0.5],[1,0.5]];portConstraint=eastwest;whiteSpace=wrap;html=1;" vertex="1" parent="a_CbcsXZmCE6Jk2cfPpo-110">
          <mxGeometry y="130" width="182.5" height="26" as="geometry" />
        </mxCell>
        <mxCell id="MIJjV1Fivk9fKiwd1mFk-62" value="+ GetByLogin(login)" style="text;strokeColor=none;fillColor=none;align=left;verticalAlign=top;spacingLeft=4;spacingRight=4;overflow=hidden;rotatable=0;points=[[0,0.5],[1,0.5]];portConstraint=eastwest;whiteSpace=wrap;html=1;" vertex="1" parent="a_CbcsXZmCE6Jk2cfPpo-110">
          <mxGeometry y="156" width="182.5" height="26" as="geometry" />
        </mxCell>
        <mxCell id="MIJjV1Fivk9fKiwd1mFk-61" value="+ GetByPermission(permission)" style="text;strokeColor=none;fillColor=none;align=left;verticalAlign=top;spacingLeft=4;spacingRight=4;overflow=hidden;rotatable=0;points=[[0,0.5],[1,0.5]];portConstraint=eastwest;whiteSpace=wrap;html=1;" vertex="1" parent="a_CbcsXZmCE6Jk2cfPpo-110">
          <mxGeometry y="182" width="182.5" height="26" as="geometry" />
        </mxCell>
        <mxCell id="a_CbcsXZmCE6Jk2cfPpo-117" value="Database" style="text;html=1;align=center;verticalAlign=middle;resizable=0;points=[];autosize=1;strokeColor=none;fillColor=none;" parent="1" vertex="1">
          <mxGeometry x="-535" y="1190" width="70" height="30" as="geometry" />
        </mxCell>
        <mxCell id="a_CbcsXZmCE6Jk2cfPpo-119" value="Business Logic" style="text;html=1;align=center;verticalAlign=middle;resizable=0;points=[];autosize=1;strokeColor=none;fillColor=none;" parent="1" vertex="1">
          <mxGeometry x="-550" y="30" width="100" height="30" as="geometry" />
        </mxCell>
        <mxCell id="a_CbcsXZmCE6Jk2cfPpo-120" value="" style="endArrow=block;dashed=1;endFill=0;endSize=12;html=1;rounded=0;exitX=0.5;exitY=0;exitDx=0;exitDy=0;" parent="1" source="a_CbcsXZmCE6Jk2cfPpo-110" target="a_CbcsXZmCE6Jk2cfPpo-79" edge="1">
          <mxGeometry width="160" relative="1" as="geometry">
            <mxPoint x="10" y="1000" as="sourcePoint" />
            <mxPoint x="170" y="1000" as="targetPoint" />
          </mxGeometry>
        </mxCell>
        <mxCell id="a_CbcsXZmCE6Jk2cfPpo-121" value="" style="endArrow=block;dashed=1;endFill=0;endSize=12;html=1;rounded=0;entryX=0.5;entryY=1;entryDx=0;entryDy=0;" parent="1" edge="1" target="a_CbcsXZmCE6Jk2cfPpo-54">
          <mxGeometry width="160" relative="1" as="geometry">
            <mxPoint x="-110" y="1210" as="sourcePoint" />
            <mxPoint x="-120.59" y="1046" as="targetPoint" />
          </mxGeometry>
        </mxCell>
        <mxCell id="a_CbcsXZmCE6Jk2cfPpo-122" value="" style="endArrow=block;dashed=1;endFill=0;endSize=12;html=1;rounded=0;" parent="1" edge="1" target="a_CbcsXZmCE6Jk2cfPpo-60">
          <mxGeometry width="160" relative="1" as="geometry">
            <mxPoint x="100" y="1210" as="sourcePoint" />
            <mxPoint x="99.41000000000003" y="1046" as="targetPoint" />
          </mxGeometry>
        </mxCell>
        <mxCell id="a_CbcsXZmCE6Jk2cfPpo-123" value="" style="endArrow=block;dashed=1;endFill=0;endSize=12;html=1;rounded=0;" parent="1" target="a_CbcsXZmCE6Jk2cfPpo-66" edge="1">
          <mxGeometry width="160" relative="1" as="geometry">
            <mxPoint x="344" y="1210" as="sourcePoint" />
            <mxPoint x="330" y="1046" as="targetPoint" />
          </mxGeometry>
        </mxCell>
        <mxCell id="a_CbcsXZmCE6Jk2cfPpo-124" value="" style="endArrow=block;dashed=1;endFill=0;endSize=12;html=1;rounded=0;" parent="1" target="a_CbcsXZmCE6Jk2cfPpo-72" edge="1">
          <mxGeometry width="160" relative="1" as="geometry">
            <mxPoint x="600" y="1210" as="sourcePoint" />
            <mxPoint x="589.41" y="1070" as="targetPoint" />
          </mxGeometry>
        </mxCell>
        <mxCell id="a_CbcsXZmCE6Jk2cfPpo-126" value="" style="endArrow=classic;html=1;rounded=0;exitX=0.5;exitY=0;exitDx=0;exitDy=0;" parent="1" source="a_CbcsXZmCE6Jk2cfPpo-79" target="MIJjV1Fivk9fKiwd1mFk-1" edge="1">
          <mxGeometry width="50" height="50" relative="1" as="geometry">
            <mxPoint x="-50" y="830" as="sourcePoint" />
            <mxPoint x="-320" y="430" as="targetPoint" />
          </mxGeometry>
        </mxCell>
        <mxCell id="a_CbcsXZmCE6Jk2cfPpo-128" value="" style="endArrow=classic;html=1;rounded=0;entryX=0.01;entryY=0.078;entryDx=0;entryDy=0;entryPerimeter=0;edgeStyle=orthogonalEdgeStyle;" parent="1" source="a_CbcsXZmCE6Jk2cfPpo-60" target="MIJjV1Fivk9fKiwd1mFk-18" edge="1">
          <mxGeometry width="50" height="50" relative="1" as="geometry">
            <mxPoint x="-110" y="900" as="sourcePoint" />
            <mxPoint x="108.58181818181856" y="496" as="targetPoint" />
            <Array as="points">
              <mxPoint y="968" />
              <mxPoint y="356" />
            </Array>
          </mxGeometry>
        </mxCell>
        <mxCell id="a_CbcsXZmCE6Jk2cfPpo-130" value="" style="endArrow=classic;html=1;rounded=0;" parent="1" source="a_CbcsXZmCE6Jk2cfPpo-72" target="MIJjV1Fivk9fKiwd1mFk-31" edge="1">
          <mxGeometry width="50" height="50" relative="1" as="geometry">
            <mxPoint x="344" y="900" as="sourcePoint" />
            <mxPoint x="598.3454545454547" y="521.9999999999995" as="targetPoint" />
          </mxGeometry>
        </mxCell>
        <mxCell id="MIJjV1Fivk9fKiwd1mFk-3" value="" style="endArrow=none;html=1;rounded=0;exitX=1;exitY=0.5;exitDx=0;exitDy=0;" edge="1" parent="1" source="lqblze6DB7Pf2pC1sdCj-18" target="lqblze6DB7Pf2pC1sdCj-14">
          <mxGeometry width="50" height="50" relative="1" as="geometry">
            <mxPoint x="-240" y="70" as="sourcePoint" />
            <mxPoint x="20" y="330" as="targetPoint" />
          </mxGeometry>
        </mxCell>
        <mxCell id="MIJjV1Fivk9fKiwd1mFk-4" value="" style="endArrow=none;html=1;rounded=0;exitX=1;exitY=0.5;exitDx=0;exitDy=0;" edge="1" parent="1" source="lqblze6DB7Pf2pC1sdCj-14" target="lqblze6DB7Pf2pC1sdCj-6">
          <mxGeometry width="50" height="50" relative="1" as="geometry">
            <mxPoint x="-30" y="380" as="sourcePoint" />
            <mxPoint x="20" y="330" as="targetPoint" />
          </mxGeometry>
        </mxCell>
        <mxCell id="MIJjV1Fivk9fKiwd1mFk-5" value="" style="endArrow=none;html=1;rounded=0;entryX=0;entryY=0.5;entryDx=0;entryDy=0;exitX=1;exitY=0.5;exitDx=0;exitDy=0;" edge="1" parent="1" source="lqblze6DB7Pf2pC1sdCj-6" target="lqblze6DB7Pf2pC1sdCj-2">
          <mxGeometry width="50" height="50" relative="1" as="geometry">
            <mxPoint x="-30" y="380" as="sourcePoint" />
            <mxPoint x="20" y="330" as="targetPoint" />
          </mxGeometry>
        </mxCell>
        <mxCell id="MIJjV1Fivk9fKiwd1mFk-18" value="BookController" style="swimlane;fontStyle=0;childLayout=stackLayout;horizontal=1;startSize=26;fillColor=none;horizontalStack=0;resizeParent=1;resizeParentMax=0;resizeLast=0;collapsible=1;marginBottom=0;whiteSpace=wrap;html=1;" vertex="1" parent="1">
          <mxGeometry x="25" y="340" width="170" height="208" as="geometry" />
        </mxCell>
        <mxCell id="MIJjV1Fivk9fKiwd1mFk-19" value="+ GetAll()" style="text;strokeColor=none;fillColor=none;align=left;verticalAlign=top;spacingLeft=4;spacingRight=4;overflow=hidden;rotatable=0;points=[[0,0.5],[1,0.5]];portConstraint=eastwest;whiteSpace=wrap;html=1;" vertex="1" parent="MIJjV1Fivk9fKiwd1mFk-18">
          <mxGeometry y="26" width="170" height="26" as="geometry" />
        </mxCell>
        <mxCell id="MIJjV1Fivk9fKiwd1mFk-20" value="+ GetById(id)" style="text;strokeColor=none;fillColor=none;align=left;verticalAlign=top;spacingLeft=4;spacingRight=4;overflow=hidden;rotatable=0;points=[[0,0.5],[1,0.5]];portConstraint=eastwest;whiteSpace=wrap;html=1;" vertex="1" parent="MIJjV1Fivk9fKiwd1mFk-18">
          <mxGeometry y="52" width="170" height="26" as="geometry" />
        </mxCell>
        <mxCell id="MIJjV1Fivk9fKiwd1mFk-21" value="+ Add(model)" style="text;strokeColor=none;fillColor=none;align=left;verticalAlign=top;spacingLeft=4;spacingRight=4;overflow=hidden;rotatable=0;points=[[0,0.5],[1,0.5]];portConstraint=eastwest;whiteSpace=wrap;html=1;" vertex="1" parent="MIJjV1Fivk9fKiwd1mFk-18">
          <mxGeometry y="78" width="170" height="26" as="geometry" />
        </mxCell>
        <mxCell id="MIJjV1Fivk9fKiwd1mFk-22" value="+ Update(model)" style="text;strokeColor=none;fillColor=none;align=left;verticalAlign=top;spacingLeft=4;spacingRight=4;overflow=hidden;rotatable=0;points=[[0,0.5],[1,0.5]];portConstraint=eastwest;whiteSpace=wrap;html=1;" vertex="1" parent="MIJjV1Fivk9fKiwd1mFk-18">
          <mxGeometry y="104" width="170" height="26" as="geometry" />
        </mxCell>
        <mxCell id="MIJjV1Fivk9fKiwd1mFk-23" value="+ Delete(model)" style="text;strokeColor=none;fillColor=none;align=left;verticalAlign=top;spacingLeft=4;spacingRight=4;overflow=hidden;rotatable=0;points=[[0,0.5],[1,0.5]];portConstraint=eastwest;whiteSpace=wrap;html=1;" vertex="1" parent="MIJjV1Fivk9fKiwd1mFk-18">
          <mxGeometry y="130" width="170" height="26" as="geometry" />
        </mxCell>
        <mxCell id="MIJjV1Fivk9fKiwd1mFk-24" value="+ GetByAuthor(model)" style="text;strokeColor=none;fillColor=none;align=left;verticalAlign=top;spacingLeft=4;spacingRight=4;overflow=hidden;rotatable=0;points=[[0,0.5],[1,0.5]];portConstraint=eastwest;whiteSpace=wrap;html=1;" vertex="1" parent="MIJjV1Fivk9fKiwd1mFk-18">
          <mxGeometry y="156" width="170" height="26" as="geometry" />
        </mxCell>
        <mxCell id="MIJjV1Fivk9fKiwd1mFk-25" value="+ GetBySeries(model)" style="text;strokeColor=none;fillColor=none;align=left;verticalAlign=top;spacingLeft=4;spacingRight=4;overflow=hidden;rotatable=0;points=[[0,0.5],[1,0.5]];portConstraint=eastwest;whiteSpace=wrap;html=1;" vertex="1" parent="MIJjV1Fivk9fKiwd1mFk-18">
          <mxGeometry y="182" width="170" height="26" as="geometry" />
        </mxCell>
        <mxCell id="MIJjV1Fivk9fKiwd1mFk-26" value="AuthorController" style="swimlane;fontStyle=0;childLayout=stackLayout;horizontal=1;startSize=26;fillColor=none;horizontalStack=0;resizeParent=1;resizeParentMax=0;resizeLast=0;collapsible=1;marginBottom=0;whiteSpace=wrap;html=1;" vertex="1" parent="1">
          <mxGeometry x="515" y="340" width="170" height="156" as="geometry" />
        </mxCell>
        <mxCell id="MIJjV1Fivk9fKiwd1mFk-27" value="+ GetAll()" style="text;strokeColor=none;fillColor=none;align=left;verticalAlign=top;spacingLeft=4;spacingRight=4;overflow=hidden;rotatable=0;points=[[0,0.5],[1,0.5]];portConstraint=eastwest;whiteSpace=wrap;html=1;" vertex="1" parent="MIJjV1Fivk9fKiwd1mFk-26">
          <mxGeometry y="26" width="170" height="26" as="geometry" />
        </mxCell>
        <mxCell id="MIJjV1Fivk9fKiwd1mFk-28" value="+ GetById(id)" style="text;strokeColor=none;fillColor=none;align=left;verticalAlign=top;spacingLeft=4;spacingRight=4;overflow=hidden;rotatable=0;points=[[0,0.5],[1,0.5]];portConstraint=eastwest;whiteSpace=wrap;html=1;" vertex="1" parent="MIJjV1Fivk9fKiwd1mFk-26">
          <mxGeometry y="52" width="170" height="26" as="geometry" />
        </mxCell>
        <mxCell id="MIJjV1Fivk9fKiwd1mFk-29" value="+ Add(model)" style="text;strokeColor=none;fillColor=none;align=left;verticalAlign=top;spacingLeft=4;spacingRight=4;overflow=hidden;rotatable=0;points=[[0,0.5],[1,0.5]];portConstraint=eastwest;whiteSpace=wrap;html=1;" vertex="1" parent="MIJjV1Fivk9fKiwd1mFk-26">
          <mxGeometry y="78" width="170" height="26" as="geometry" />
        </mxCell>
        <mxCell id="MIJjV1Fivk9fKiwd1mFk-30" value="+ Update(model)" style="text;strokeColor=none;fillColor=none;align=left;verticalAlign=top;spacingLeft=4;spacingRight=4;overflow=hidden;rotatable=0;points=[[0,0.5],[1,0.5]];portConstraint=eastwest;whiteSpace=wrap;html=1;" vertex="1" parent="MIJjV1Fivk9fKiwd1mFk-26">
          <mxGeometry y="104" width="170" height="26" as="geometry" />
        </mxCell>
        <mxCell id="MIJjV1Fivk9fKiwd1mFk-31" value="+ Delete(model)" style="text;strokeColor=none;fillColor=none;align=left;verticalAlign=top;spacingLeft=4;spacingRight=4;overflow=hidden;rotatable=0;points=[[0,0.5],[1,0.5]];portConstraint=eastwest;whiteSpace=wrap;html=1;" vertex="1" parent="MIJjV1Fivk9fKiwd1mFk-26">
          <mxGeometry y="130" width="170" height="26" as="geometry" />
        </mxCell>
        <mxCell id="MIJjV1Fivk9fKiwd1mFk-32" value="&lt;i style=&quot;border-color: var(--border-color);&quot;&gt;&amp;lt;&amp;lt;interface&amp;gt;&amp;gt;&lt;/i&gt;&lt;br&gt;IRepository" style="swimlane;fontStyle=0;childLayout=stackLayout;horizontal=1;startSize=26;fillColor=none;horizontalStack=0;resizeParent=1;resizeParentMax=0;resizeLast=0;collapsible=1;marginBottom=0;whiteSpace=wrap;html=1;" vertex="1" parent="1">
          <mxGeometry x="78.5" y="610" width="170" height="156" as="geometry" />
        </mxCell>
        <mxCell id="MIJjV1Fivk9fKiwd1mFk-33" value="+ GetAll()" style="text;strokeColor=none;fillColor=none;align=left;verticalAlign=top;spacingLeft=4;spacingRight=4;overflow=hidden;rotatable=0;points=[[0,0.5],[1,0.5]];portConstraint=eastwest;whiteSpace=wrap;html=1;" vertex="1" parent="MIJjV1Fivk9fKiwd1mFk-32">
          <mxGeometry y="26" width="170" height="26" as="geometry" />
        </mxCell>
        <mxCell id="MIJjV1Fivk9fKiwd1mFk-34" value="+ GetById(id)" style="text;strokeColor=none;fillColor=none;align=left;verticalAlign=top;spacingLeft=4;spacingRight=4;overflow=hidden;rotatable=0;points=[[0,0.5],[1,0.5]];portConstraint=eastwest;whiteSpace=wrap;html=1;" vertex="1" parent="MIJjV1Fivk9fKiwd1mFk-32">
          <mxGeometry y="52" width="170" height="26" as="geometry" />
        </mxCell>
        <mxCell id="MIJjV1Fivk9fKiwd1mFk-35" value="+ Add(model)" style="text;strokeColor=none;fillColor=none;align=left;verticalAlign=top;spacingLeft=4;spacingRight=4;overflow=hidden;rotatable=0;points=[[0,0.5],[1,0.5]];portConstraint=eastwest;whiteSpace=wrap;html=1;" vertex="1" parent="MIJjV1Fivk9fKiwd1mFk-32">
          <mxGeometry y="78" width="170" height="26" as="geometry" />
        </mxCell>
        <mxCell id="MIJjV1Fivk9fKiwd1mFk-36" value="+ Update(model)" style="text;strokeColor=none;fillColor=none;align=left;verticalAlign=top;spacingLeft=4;spacingRight=4;overflow=hidden;rotatable=0;points=[[0,0.5],[1,0.5]];portConstraint=eastwest;whiteSpace=wrap;html=1;" vertex="1" parent="MIJjV1Fivk9fKiwd1mFk-32">
          <mxGeometry y="104" width="170" height="26" as="geometry" />
        </mxCell>
        <mxCell id="MIJjV1Fivk9fKiwd1mFk-37" value="+ Delete(model)" style="text;strokeColor=none;fillColor=none;align=left;verticalAlign=top;spacingLeft=4;spacingRight=4;overflow=hidden;rotatable=0;points=[[0,0.5],[1,0.5]];portConstraint=eastwest;whiteSpace=wrap;html=1;" vertex="1" parent="MIJjV1Fivk9fKiwd1mFk-32">
          <mxGeometry y="130" width="170" height="26" as="geometry" />
        </mxCell>
        <mxCell id="MIJjV1Fivk9fKiwd1mFk-78" value="BookshelfRepository" style="swimlane;fontStyle=0;childLayout=stackLayout;horizontal=1;startSize=26;fillColor=none;horizontalStack=0;resizeParent=1;resizeParentMax=0;resizeLast=0;collapsible=1;marginBottom=0;whiteSpace=wrap;html=1;" vertex="1" parent="1">
          <mxGeometry x="-195" y="1210" width="170" height="156" as="geometry" />
        </mxCell>
        <mxCell id="MIJjV1Fivk9fKiwd1mFk-79" value="+ GetAll()" style="text;strokeColor=none;fillColor=none;align=left;verticalAlign=top;spacingLeft=4;spacingRight=4;overflow=hidden;rotatable=0;points=[[0,0.5],[1,0.5]];portConstraint=eastwest;whiteSpace=wrap;html=1;" vertex="1" parent="MIJjV1Fivk9fKiwd1mFk-78">
          <mxGeometry y="26" width="170" height="26" as="geometry" />
        </mxCell>
        <mxCell id="MIJjV1Fivk9fKiwd1mFk-80" value="+ GetById(id)" style="text;strokeColor=none;fillColor=none;align=left;verticalAlign=top;spacingLeft=4;spacingRight=4;overflow=hidden;rotatable=0;points=[[0,0.5],[1,0.5]];portConstraint=eastwest;whiteSpace=wrap;html=1;" vertex="1" parent="MIJjV1Fivk9fKiwd1mFk-78">
          <mxGeometry y="52" width="170" height="26" as="geometry" />
        </mxCell>
        <mxCell id="MIJjV1Fivk9fKiwd1mFk-81" value="+ Add(model)" style="text;strokeColor=none;fillColor=none;align=left;verticalAlign=top;spacingLeft=4;spacingRight=4;overflow=hidden;rotatable=0;points=[[0,0.5],[1,0.5]];portConstraint=eastwest;whiteSpace=wrap;html=1;" vertex="1" parent="MIJjV1Fivk9fKiwd1mFk-78">
          <mxGeometry y="78" width="170" height="26" as="geometry" />
        </mxCell>
        <mxCell id="MIJjV1Fivk9fKiwd1mFk-82" value="+ Update(model)" style="text;strokeColor=none;fillColor=none;align=left;verticalAlign=top;spacingLeft=4;spacingRight=4;overflow=hidden;rotatable=0;points=[[0,0.5],[1,0.5]];portConstraint=eastwest;whiteSpace=wrap;html=1;" vertex="1" parent="MIJjV1Fivk9fKiwd1mFk-78">
          <mxGeometry y="104" width="170" height="26" as="geometry" />
        </mxCell>
        <mxCell id="MIJjV1Fivk9fKiwd1mFk-83" value="+ Delete(model)" style="text;strokeColor=none;fillColor=none;align=left;verticalAlign=top;spacingLeft=4;spacingRight=4;overflow=hidden;rotatable=0;points=[[0,0.5],[1,0.5]];portConstraint=eastwest;whiteSpace=wrap;html=1;" vertex="1" parent="MIJjV1Fivk9fKiwd1mFk-78">
          <mxGeometry y="130" width="170" height="26" as="geometry" />
        </mxCell>
        <mxCell id="MIJjV1Fivk9fKiwd1mFk-87" style="text;strokeColor=none;fillColor=none;align=left;verticalAlign=top;spacingLeft=4;spacingRight=4;overflow=hidden;rotatable=1;points=[[0,0.5],[1,0.5]];portConstraint=eastwest;whiteSpace=wrap;html=1;movable=1;resizable=1;deletable=1;editable=1;locked=0;connectable=1;" vertex="1" parent="MIJjV1Fivk9fKiwd1mFk-78">
          <mxGeometry y="156" width="170" height="26" as="geometry" />
        </mxCell>
        <mxCell id="MIJjV1Fivk9fKiwd1mFk-89" value="BookRepository" style="swimlane;fontStyle=0;childLayout=stackLayout;horizontal=1;startSize=26;fillColor=none;horizontalStack=0;resizeParent=1;resizeParentMax=0;resizeLast=0;collapsible=1;marginBottom=0;whiteSpace=wrap;html=1;" vertex="1" parent="1">
          <mxGeometry x="15" y="1210" width="170" height="338" as="geometry" />
        </mxCell>
        <mxCell id="MIJjV1Fivk9fKiwd1mFk-90" value="+ GetAll()" style="text;strokeColor=none;fillColor=none;align=left;verticalAlign=top;spacingLeft=4;spacingRight=4;overflow=hidden;rotatable=0;points=[[0,0.5],[1,0.5]];portConstraint=eastwest;whiteSpace=wrap;html=1;" vertex="1" parent="MIJjV1Fivk9fKiwd1mFk-89">
          <mxGeometry y="26" width="170" height="26" as="geometry" />
        </mxCell>
        <mxCell id="MIJjV1Fivk9fKiwd1mFk-91" value="+ GetById(id)" style="text;strokeColor=none;fillColor=none;align=left;verticalAlign=top;spacingLeft=4;spacingRight=4;overflow=hidden;rotatable=0;points=[[0,0.5],[1,0.5]];portConstraint=eastwest;whiteSpace=wrap;html=1;" vertex="1" parent="MIJjV1Fivk9fKiwd1mFk-89">
          <mxGeometry y="52" width="170" height="26" as="geometry" />
        </mxCell>
        <mxCell id="MIJjV1Fivk9fKiwd1mFk-92" value="+ Add(model)" style="text;strokeColor=none;fillColor=none;align=left;verticalAlign=top;spacingLeft=4;spacingRight=4;overflow=hidden;rotatable=0;points=[[0,0.5],[1,0.5]];portConstraint=eastwest;whiteSpace=wrap;html=1;" vertex="1" parent="MIJjV1Fivk9fKiwd1mFk-89">
          <mxGeometry y="78" width="170" height="26" as="geometry" />
        </mxCell>
        <mxCell id="MIJjV1Fivk9fKiwd1mFk-93" value="+ Update(model)" style="text;strokeColor=none;fillColor=none;align=left;verticalAlign=top;spacingLeft=4;spacingRight=4;overflow=hidden;rotatable=0;points=[[0,0.5],[1,0.5]];portConstraint=eastwest;whiteSpace=wrap;html=1;" vertex="1" parent="MIJjV1Fivk9fKiwd1mFk-89">
          <mxGeometry y="104" width="170" height="26" as="geometry" />
        </mxCell>
        <mxCell id="MIJjV1Fivk9fKiwd1mFk-94" value="+ Delete(model)" style="text;strokeColor=none;fillColor=none;align=left;verticalAlign=top;spacingLeft=4;spacingRight=4;overflow=hidden;rotatable=0;points=[[0,0.5],[1,0.5]];portConstraint=eastwest;whiteSpace=wrap;html=1;" vertex="1" parent="MIJjV1Fivk9fKiwd1mFk-89">
          <mxGeometry y="130" width="170" height="26" as="geometry" />
        </mxCell>
        <mxCell id="MIJjV1Fivk9fKiwd1mFk-95" value="+ GetByName(name)" style="text;strokeColor=none;fillColor=none;align=left;verticalAlign=top;spacingLeft=4;spacingRight=4;overflow=hidden;rotatable=1;points=[[0,0.5],[1,0.5]];portConstraint=eastwest;whiteSpace=wrap;html=1;movable=1;resizable=1;deletable=1;editable=1;locked=0;connectable=1;" vertex="1" parent="MIJjV1Fivk9fKiwd1mFk-89">
          <mxGeometry y="156" width="170" height="26" as="geometry" />
        </mxCell>
        <mxCell id="MIJjV1Fivk9fKiwd1mFk-114" value="+ GetByGenre(genre)" style="text;strokeColor=none;fillColor=none;align=left;verticalAlign=top;spacingLeft=4;spacingRight=4;overflow=hidden;rotatable=1;points=[[0,0.5],[1,0.5]];portConstraint=eastwest;whiteSpace=wrap;html=1;movable=1;resizable=1;deletable=1;editable=1;locked=0;connectable=1;" vertex="1" parent="MIJjV1Fivk9fKiwd1mFk-89">
          <mxGeometry y="182" width="170" height="26" as="geometry" />
        </mxCell>
        <mxCell id="MIJjV1Fivk9fKiwd1mFk-113" value="+ GetByLanguage(language)" style="text;strokeColor=none;fillColor=none;align=left;verticalAlign=top;spacingLeft=4;spacingRight=4;overflow=hidden;rotatable=1;points=[[0,0.5],[1,0.5]];portConstraint=eastwest;whiteSpace=wrap;html=1;movable=1;resizable=1;deletable=1;editable=1;locked=0;connectable=1;" vertex="1" parent="MIJjV1Fivk9fKiwd1mFk-89">
          <mxGeometry y="208" width="170" height="26" as="geometry" />
        </mxCell>
        <mxCell id="MIJjV1Fivk9fKiwd1mFk-115" value="+ GetByRating(rating)" style="text;strokeColor=none;fillColor=none;align=left;verticalAlign=top;spacingLeft=4;spacingRight=4;overflow=hidden;rotatable=1;points=[[0,0.5],[1,0.5]];portConstraint=eastwest;whiteSpace=wrap;html=1;movable=1;resizable=1;deletable=1;editable=1;locked=0;connectable=1;" vertex="1" parent="MIJjV1Fivk9fKiwd1mFk-89">
          <mxGeometry y="234" width="170" height="26" as="geometry" />
        </mxCell>
        <mxCell id="MIJjV1Fivk9fKiwd1mFk-112" value="+ GetByAuthor(author)" style="text;strokeColor=none;fillColor=none;align=left;verticalAlign=top;spacingLeft=4;spacingRight=4;overflow=hidden;rotatable=1;points=[[0,0.5],[1,0.5]];portConstraint=eastwest;whiteSpace=wrap;html=1;movable=1;resizable=1;deletable=1;editable=1;locked=0;connectable=1;" vertex="1" parent="MIJjV1Fivk9fKiwd1mFk-89">
          <mxGeometry y="260" width="170" height="26" as="geometry" />
        </mxCell>
        <mxCell id="MIJjV1Fivk9fKiwd1mFk-111" value="+ GetBySeries(series)" style="text;strokeColor=none;fillColor=none;align=left;verticalAlign=top;spacingLeft=4;spacingRight=4;overflow=hidden;rotatable=1;points=[[0,0.5],[1,0.5]];portConstraint=eastwest;whiteSpace=wrap;html=1;movable=1;resizable=1;deletable=1;editable=1;locked=0;connectable=1;" vertex="1" parent="MIJjV1Fivk9fKiwd1mFk-89">
          <mxGeometry y="286" width="170" height="26" as="geometry" />
        </mxCell>
        <mxCell id="MIJjV1Fivk9fKiwd1mFk-110" value="+ GetByBookshelf(bookshelf)" style="text;strokeColor=none;fillColor=none;align=left;verticalAlign=top;spacingLeft=4;spacingRight=4;overflow=hidden;rotatable=1;points=[[0,0.5],[1,0.5]];portConstraint=eastwest;whiteSpace=wrap;html=1;movable=1;resizable=1;deletable=1;editable=1;locked=0;connectable=1;" vertex="1" parent="MIJjV1Fivk9fKiwd1mFk-89">
          <mxGeometry y="312" width="170" height="26" as="geometry" />
        </mxCell>
        <mxCell id="MIJjV1Fivk9fKiwd1mFk-96" value="SeriesRepository" style="swimlane;fontStyle=0;childLayout=stackLayout;horizontal=1;startSize=26;fillColor=none;horizontalStack=0;resizeParent=1;resizeParentMax=0;resizeLast=0;collapsible=1;marginBottom=0;whiteSpace=wrap;html=1;" vertex="1" parent="1">
          <mxGeometry x="259" y="1210" width="170" height="286" as="geometry" />
        </mxCell>
        <mxCell id="MIJjV1Fivk9fKiwd1mFk-97" value="+ GetAll()" style="text;strokeColor=none;fillColor=none;align=left;verticalAlign=top;spacingLeft=4;spacingRight=4;overflow=hidden;rotatable=0;points=[[0,0.5],[1,0.5]];portConstraint=eastwest;whiteSpace=wrap;html=1;" vertex="1" parent="MIJjV1Fivk9fKiwd1mFk-96">
          <mxGeometry y="26" width="170" height="26" as="geometry" />
        </mxCell>
        <mxCell id="MIJjV1Fivk9fKiwd1mFk-98" value="+ GetById(id)" style="text;strokeColor=none;fillColor=none;align=left;verticalAlign=top;spacingLeft=4;spacingRight=4;overflow=hidden;rotatable=0;points=[[0,0.5],[1,0.5]];portConstraint=eastwest;whiteSpace=wrap;html=1;" vertex="1" parent="MIJjV1Fivk9fKiwd1mFk-96">
          <mxGeometry y="52" width="170" height="26" as="geometry" />
        </mxCell>
        <mxCell id="MIJjV1Fivk9fKiwd1mFk-99" value="+ Add(model)" style="text;strokeColor=none;fillColor=none;align=left;verticalAlign=top;spacingLeft=4;spacingRight=4;overflow=hidden;rotatable=0;points=[[0,0.5],[1,0.5]];portConstraint=eastwest;whiteSpace=wrap;html=1;" vertex="1" parent="MIJjV1Fivk9fKiwd1mFk-96">
          <mxGeometry y="78" width="170" height="26" as="geometry" />
        </mxCell>
        <mxCell id="MIJjV1Fivk9fKiwd1mFk-100" value="+ Update(model)" style="text;strokeColor=none;fillColor=none;align=left;verticalAlign=top;spacingLeft=4;spacingRight=4;overflow=hidden;rotatable=0;points=[[0,0.5],[1,0.5]];portConstraint=eastwest;whiteSpace=wrap;html=1;" vertex="1" parent="MIJjV1Fivk9fKiwd1mFk-96">
          <mxGeometry y="104" width="170" height="26" as="geometry" />
        </mxCell>
        <mxCell id="MIJjV1Fivk9fKiwd1mFk-101" value="+ Delete(model)" style="text;strokeColor=none;fillColor=none;align=left;verticalAlign=top;spacingLeft=4;spacingRight=4;overflow=hidden;rotatable=0;points=[[0,0.5],[1,0.5]];portConstraint=eastwest;whiteSpace=wrap;html=1;" vertex="1" parent="MIJjV1Fivk9fKiwd1mFk-96">
          <mxGeometry y="130" width="170" height="26" as="geometry" />
        </mxCell>
        <mxCell id="MIJjV1Fivk9fKiwd1mFk-102" value="+ GetByNmae(name)" style="text;strokeColor=none;fillColor=none;align=left;verticalAlign=top;spacingLeft=4;spacingRight=4;overflow=hidden;rotatable=1;points=[[0,0.5],[1,0.5]];portConstraint=eastwest;whiteSpace=wrap;html=1;movable=1;resizable=1;deletable=1;editable=1;locked=0;connectable=1;" vertex="1" parent="MIJjV1Fivk9fKiwd1mFk-96">
          <mxGeometry y="156" width="170" height="26" as="geometry" />
        </mxCell>
        <mxCell id="MIJjV1Fivk9fKiwd1mFk-120" value="+ GetByGenre(genre)" style="text;strokeColor=none;fillColor=none;align=left;verticalAlign=top;spacingLeft=4;spacingRight=4;overflow=hidden;rotatable=1;points=[[0,0.5],[1,0.5]];portConstraint=eastwest;whiteSpace=wrap;html=1;movable=1;resizable=1;deletable=1;editable=1;locked=0;connectable=1;" vertex="1" parent="MIJjV1Fivk9fKiwd1mFk-96">
          <mxGeometry y="182" width="170" height="26" as="geometry" />
        </mxCell>
        <mxCell id="MIJjV1Fivk9fKiwd1mFk-119" value="+ GetByPublisher(publisher)" style="text;strokeColor=none;fillColor=none;align=left;verticalAlign=top;spacingLeft=4;spacingRight=4;overflow=hidden;rotatable=1;points=[[0,0.5],[1,0.5]];portConstraint=eastwest;whiteSpace=wrap;html=1;movable=1;resizable=1;deletable=1;editable=1;locked=0;connectable=1;" vertex="1" parent="MIJjV1Fivk9fKiwd1mFk-96">
          <mxGeometry y="208" width="170" height="26" as="geometry" />
        </mxCell>
        <mxCell id="MIJjV1Fivk9fKiwd1mFk-122" value="+ GetBuYear(year)" style="text;strokeColor=none;fillColor=none;align=left;verticalAlign=top;spacingLeft=4;spacingRight=4;overflow=hidden;rotatable=1;points=[[0,0.5],[1,0.5]];portConstraint=eastwest;whiteSpace=wrap;html=1;movable=1;resizable=1;deletable=1;editable=1;locked=0;connectable=1;" vertex="1" parent="MIJjV1Fivk9fKiwd1mFk-96">
          <mxGeometry y="234" width="170" height="26" as="geometry" />
        </mxCell>
        <mxCell id="MIJjV1Fivk9fKiwd1mFk-121" value="+ GetByRating(rating)" style="text;strokeColor=none;fillColor=none;align=left;verticalAlign=top;spacingLeft=4;spacingRight=4;overflow=hidden;rotatable=1;points=[[0,0.5],[1,0.5]];portConstraint=eastwest;whiteSpace=wrap;html=1;movable=1;resizable=1;deletable=1;editable=1;locked=0;connectable=1;" vertex="1" parent="MIJjV1Fivk9fKiwd1mFk-96">
          <mxGeometry y="260" width="170" height="26" as="geometry" />
        </mxCell>
        <mxCell id="MIJjV1Fivk9fKiwd1mFk-103" value="AuthorRepository" style="swimlane;fontStyle=0;childLayout=stackLayout;horizontal=1;startSize=26;fillColor=none;horizontalStack=0;resizeParent=1;resizeParentMax=0;resizeLast=0;collapsible=1;marginBottom=0;whiteSpace=wrap;html=1;" vertex="1" parent="1">
          <mxGeometry x="515" y="1210" width="170" height="312" as="geometry" />
        </mxCell>
        <mxCell id="MIJjV1Fivk9fKiwd1mFk-104" value="+ GetAll()" style="text;strokeColor=none;fillColor=none;align=left;verticalAlign=top;spacingLeft=4;spacingRight=4;overflow=hidden;rotatable=0;points=[[0,0.5],[1,0.5]];portConstraint=eastwest;whiteSpace=wrap;html=1;" vertex="1" parent="MIJjV1Fivk9fKiwd1mFk-103">
          <mxGeometry y="26" width="170" height="26" as="geometry" />
        </mxCell>
        <mxCell id="MIJjV1Fivk9fKiwd1mFk-105" value="+ GetById(id)" style="text;strokeColor=none;fillColor=none;align=left;verticalAlign=top;spacingLeft=4;spacingRight=4;overflow=hidden;rotatable=0;points=[[0,0.5],[1,0.5]];portConstraint=eastwest;whiteSpace=wrap;html=1;" vertex="1" parent="MIJjV1Fivk9fKiwd1mFk-103">
          <mxGeometry y="52" width="170" height="26" as="geometry" />
        </mxCell>
        <mxCell id="MIJjV1Fivk9fKiwd1mFk-106" value="+ Add(model)" style="text;strokeColor=none;fillColor=none;align=left;verticalAlign=top;spacingLeft=4;spacingRight=4;overflow=hidden;rotatable=0;points=[[0,0.5],[1,0.5]];portConstraint=eastwest;whiteSpace=wrap;html=1;" vertex="1" parent="MIJjV1Fivk9fKiwd1mFk-103">
          <mxGeometry y="78" width="170" height="26" as="geometry" />
        </mxCell>
        <mxCell id="MIJjV1Fivk9fKiwd1mFk-107" value="+ Update(model)" style="text;strokeColor=none;fillColor=none;align=left;verticalAlign=top;spacingLeft=4;spacingRight=4;overflow=hidden;rotatable=0;points=[[0,0.5],[1,0.5]];portConstraint=eastwest;whiteSpace=wrap;html=1;" vertex="1" parent="MIJjV1Fivk9fKiwd1mFk-103">
          <mxGeometry y="104" width="170" height="26" as="geometry" />
        </mxCell>
        <mxCell id="MIJjV1Fivk9fKiwd1mFk-108" value="+ Delete(model)" style="text;strokeColor=none;fillColor=none;align=left;verticalAlign=top;spacingLeft=4;spacingRight=4;overflow=hidden;rotatable=0;points=[[0,0.5],[1,0.5]];portConstraint=eastwest;whiteSpace=wrap;html=1;" vertex="1" parent="MIJjV1Fivk9fKiwd1mFk-103">
          <mxGeometry y="130" width="170" height="26" as="geometry" />
        </mxCell>
        <mxCell id="MIJjV1Fivk9fKiwd1mFk-109" value="+ GetByName(name)" style="text;strokeColor=none;fillColor=none;align=left;verticalAlign=top;spacingLeft=4;spacingRight=4;overflow=hidden;rotatable=1;points=[[0,0.5],[1,0.5]];portConstraint=eastwest;whiteSpace=wrap;html=1;movable=1;resizable=1;deletable=1;editable=1;locked=0;connectable=1;" vertex="1" parent="MIJjV1Fivk9fKiwd1mFk-103">
          <mxGeometry y="156" width="170" height="26" as="geometry" />
        </mxCell>
        <mxCell id="MIJjV1Fivk9fKiwd1mFk-126" value="+ GetYaerBirth(yearBirth)" style="text;strokeColor=none;fillColor=none;align=left;verticalAlign=top;spacingLeft=4;spacingRight=4;overflow=hidden;rotatable=1;points=[[0,0.5],[1,0.5]];portConstraint=eastwest;whiteSpace=wrap;html=1;movable=1;resizable=1;deletable=1;editable=1;locked=0;connectable=1;" vertex="1" parent="MIJjV1Fivk9fKiwd1mFk-103">
          <mxGeometry y="182" width="170" height="26" as="geometry" />
        </mxCell>
        <mxCell id="MIJjV1Fivk9fKiwd1mFk-125" value="+ GetYaerDeath(yearDeath)" style="text;strokeColor=none;fillColor=none;align=left;verticalAlign=top;spacingLeft=4;spacingRight=4;overflow=hidden;rotatable=1;points=[[0,0.5],[1,0.5]];portConstraint=eastwest;whiteSpace=wrap;html=1;movable=1;resizable=1;deletable=1;editable=1;locked=0;connectable=1;" vertex="1" parent="MIJjV1Fivk9fKiwd1mFk-103">
          <mxGeometry y="208" width="170" height="26" as="geometry" />
        </mxCell>
        <mxCell id="MIJjV1Fivk9fKiwd1mFk-124" value="+ GetByCountry(country)" style="text;strokeColor=none;fillColor=none;align=left;verticalAlign=top;spacingLeft=4;spacingRight=4;overflow=hidden;rotatable=1;points=[[0,0.5],[1,0.5]];portConstraint=eastwest;whiteSpace=wrap;html=1;movable=1;resizable=1;deletable=1;editable=1;locked=0;connectable=1;" vertex="1" parent="MIJjV1Fivk9fKiwd1mFk-103">
          <mxGeometry y="234" width="170" height="26" as="geometry" />
        </mxCell>
        <mxCell id="MIJjV1Fivk9fKiwd1mFk-123" value="+ GetByLanguage(language)" style="text;strokeColor=none;fillColor=none;align=left;verticalAlign=top;spacingLeft=4;spacingRight=4;overflow=hidden;rotatable=1;points=[[0,0.5],[1,0.5]];portConstraint=eastwest;whiteSpace=wrap;html=1;movable=1;resizable=1;deletable=1;editable=1;locked=0;connectable=1;" vertex="1" parent="MIJjV1Fivk9fKiwd1mFk-103">
          <mxGeometry y="260" width="170" height="26" as="geometry" />
        </mxCell>
        <mxCell id="MIJjV1Fivk9fKiwd1mFk-127" value="+ GetByGenre(genre)" style="text;strokeColor=none;fillColor=none;align=left;verticalAlign=top;spacingLeft=4;spacingRight=4;overflow=hidden;rotatable=1;points=[[0,0.5],[1,0.5]];portConstraint=eastwest;whiteSpace=wrap;html=1;movable=1;resizable=1;deletable=1;editable=1;locked=0;connectable=1;" vertex="1" parent="MIJjV1Fivk9fKiwd1mFk-103">
          <mxGeometry y="286" width="170" height="26" as="geometry" />
        </mxCell>
      </root>
    </mxGraphModel>
  </diagram>
</mxfile>
